<?xml version="1.0" encoding="UTF-8" standalone="no"?>
<!-- Created with Inkscape (http://www.inkscape.org/) -->

<svg
   xmlns:dc="http://purl.org/dc/elements/1.1/"
   xmlns:cc="http://creativecommons.org/ns#"
   xmlns:rdf="http://www.w3.org/1999/02/22-rdf-syntax-ns#"
   xmlns:svg="http://www.w3.org/2000/svg"
   xmlns="http://www.w3.org/2000/svg"
   xmlns:sodipodi="http://sodipodi.sourceforge.net/DTD/sodipodi-0.dtd"
   xmlns:inkscape="http://www.inkscape.org/namespaces/inkscape"
   width="42.382015mm"
   height="8.6345911mm"
   viewBox="0 0 42.382015 8.6345909"
   version="1.1"
   id="svg1023"
   inkscape:version="0.92.3 (2405546, 2018-03-11)"
   sodipodi:docname="logo.svg">
  <defs
     id="defs1017" />
  <sodipodi:namedview
     id="base"
     pagecolor="#ffffff"
     bordercolor="#666666"
     borderopacity="1.0"
     inkscape:pageopacity="0.0"
     inkscape:pageshadow="2"
     inkscape:zoom="3.0801133"
     inkscape:cx="63.758358"
     inkscape:cy="4.1305417"
     inkscape:document-units="mm"
     inkscape:current-layer="layer1"
     showgrid="false"
     fit-margin-top="0"
     fit-margin-left="0"
     fit-margin-right="0"
     fit-margin-bottom="0"
     inkscape:window-width="1366"
     inkscape:window-height="715"
     inkscape:window-x="-8"
     inkscape:window-y="-8"
     inkscape:window-maximized="1" />
  <metadata
     id="metadata1020">
    <rdf:RDF>
      <cc:Work
         rdf:about="">
        <dc:format>image/svg+xml</dc:format>
        <dc:type
           rdf:resource="http://purl.org/dc/dcmitype/StillImage" />
        <dc:title></dc:title>
      </cc:Work>
    </rdf:RDF>
  </metadata>
  <g
     inkscape:label="Capa 1"
     inkscape:groupmode="layer"
     id="layer1"
     transform="translate(-79.917969,-153.46977)">
    <g
       id="g884"
       transform="matrix(0.36760837,0,-0.09850037,0.36760837,-53.909164,192.11353)">
      <path
         d="m 380.6438,-100.25449 -1.62191,1.244397 q -1.34227,-1.747757 -3.22985,-2.642607 -1.87359,-0.90883 -4.12469,-0.90883 -2.46084,0 -4.55814,1.18847 -2.09731,1.17449 -3.25782,3.173924 -1.14652,1.985447 -1.14652,4.474247 0,3.761164 2.57269,6.277929 2.58667,2.516764 6.51562,2.516764 4.32045,0 7.22871,-3.38365 l 1.62191,1.230418 q -1.53802,1.957483 -3.84505,3.034099 -2.29305,1.062634 -5.1314,1.062634 -5.39707,0 -8.51506,-3.59338 -2.61464,-3.034099 -2.61464,-7.32658 0,-4.516193 3.15994,-7.592235 3.17392,-3.09003 7.94179,-3.09003 2.8803,0 5.20131,1.14653 2.32102,1.13254 3.80311,3.1879 z"
         style="font-style:normal;font-variant:normal;font-weight:normal;font-stretch:normal;font-size:medium;line-height:15.03347206px;font-family:'Century Gothic';-inkscape-font-specification:'Century Gothic';letter-spacing:0px;word-spacing:0px;fill:#ffcc00;fill-opacity:1;stroke:none;stroke-width:0.71587956"
         id="path858"
         inkscape:connector-curvature="0" />
      <path
         d="m 381.51168,-104.07159 h 2.05536 v 12.416041 q 0,2.209159 0.0839,2.754458 0.1538,1.216436 0.71308,2.041376 0.55928,0.810957 1.71979,1.370238 1.16051,0.545299 2.335,0.545299 1.02069,0 1.95748,-0.433443 0.9368,-0.433443 1.56599,-1.202454 0.62919,-0.769011 0.92281,-1.859609 0.20973,-0.782993 0.20973,-3.215865 v -12.416041 h 2.05536 v 12.416041 q 0,2.754458 -0.5453,4.460265 -0.53132,1.691825 -2.15323,2.950207 -1.60793,1.258382 -3.90099,1.258382 -2.4888,0 -4.26451,-1.188472 -1.77572,-1.188472 -2.37695,-3.145955 -0.37751,-1.202454 -0.37751,-4.334427 z"
         style="font-style:normal;font-variant:normal;font-weight:normal;font-stretch:normal;font-size:medium;line-height:15.03347206px;font-family:'Century Gothic';-inkscape-font-specification:'Century Gothic';letter-spacing:0px;word-spacing:0px;fill:#ffcc00;fill-opacity:1;stroke:none;stroke-width:0.71587956"
         id="path860"
         inkscape:connector-curvature="0" />
      <path
         d="m 408.25574,-101.27518 -2.89428,2.558709 q -1.52404,-2.125269 -3.10401,-2.125269 -0.76901,0 -1.25838,0.41946 -0.48937,0.40548 -0.48937,0.922816 0,0.517335 0.34955,0.978741 0.47539,0.615209 2.86631,2.642603 2.23713,1.873591 2.71252,2.362962 1.18847,1.202454 1.67784,2.307033 0.50335,1.090598 0.50335,2.390926 0,2.530747 -1.74775,4.180625 -1.74775,1.649879 -4.55814,1.649879 -2.19518,0 -3.83108,-1.076616 -1.62191,-1.076616 -2.78242,-3.383649 l 3.28578,-1.985448 q 1.48209,2.726495 3.41161,2.726495 1.00671,0 1.69183,-0.587245 0.68511,-0.587245 0.68511,-1.356256 0,-0.699101 -0.51733,-1.398203 -0.51733,-0.699101 -2.27907,-2.139249 -3.35569,-2.740477 -4.33443,-4.222571 -0.97874,-1.496077 -0.97874,-2.978171 0,-2.139252 1.62192,-3.663292 1.63589,-1.53802 4.02682,-1.53802 1.53802,0 2.92224,0.71308 1.3982,0.71309 3.02012,2.60066 z"
         style="font-style:normal;font-variant:normal;font-weight:bold;font-stretch:normal;font-size:medium;line-height:15.03347206px;font-family:'Century Gothic';-inkscape-font-specification:'Century Gothic Bold';letter-spacing:0px;word-spacing:0px;fill:#ff0066;fill-opacity:1;stroke:none;stroke-width:0.71587956"
         id="path862"
         inkscape:connector-curvature="0" />
      <path
         d="m 409.05092,-104.07159 h 11.36739 v 3.85904 h -3.74718 v 16.70852 h -3.9709 v -16.70852 h -3.64931 z"
         style="font-style:normal;font-variant:normal;font-weight:bold;font-stretch:normal;font-size:medium;line-height:15.03347206px;font-family:'Century Gothic';-inkscape-font-specification:'Century Gothic Bold';letter-spacing:0px;word-spacing:0px;fill:#ff0066;fill-opacity:1;stroke:none;stroke-width:0.71587956"
         id="path864"
         inkscape:connector-curvature="0" />
      <path
         d="m 421.84269,-104.07159 h 11.22757 v 3.83108 h -7.34056 v 3.719217 h 7.34056 v 3.761164 h -7.34056 v 5.411043 h 7.34056 v 3.845056 h -11.22757 z"
         style="font-style:normal;font-variant:normal;font-weight:bold;font-stretch:normal;font-size:medium;line-height:15.03347206px;font-family:'Century Gothic';-inkscape-font-specification:'Century Gothic Bold';letter-spacing:0px;word-spacing:0px;fill:#ff0066;fill-opacity:1;stroke:none;stroke-width:0.71587956"
         id="path866"
         inkscape:connector-curvature="0" />
      <path
         d="m 434.65296,-104.07159 h 4.15266 q 3.36967,0 4.85176,0.6292 1.49608,0.6152 2.34898,2.01341 0.86689,1.38422 0.86689,3.327718 0,2.153232 -1.13255,3.579398 -1.11856,1.426166 -3.04808,1.985447 -1.13254,0.321587 -4.12469,0.321587 v 8.7108 h -3.91497 z m 3.91497,8.039667 h 1.2444 q 1.46811,0 2.04137,-0.20973 0.57326,-0.20973 0.89485,-0.685119 0.33557,-0.489371 0.33557,-1.17449 0,-1.188472 -0.92281,-1.733768 -0.67114,-0.40548 -2.4888,-0.40548 h -1.10458 z"
         style="font-style:normal;font-variant:normal;font-weight:bold;font-stretch:normal;font-size:medium;line-height:15.03347206px;font-family:'Century Gothic';-inkscape-font-specification:'Century Gothic Bold';letter-spacing:0px;word-spacing:0px;fill:#ff0066;fill-opacity:1;stroke:none;stroke-width:0.71587956"
         id="path868"
         inkscape:connector-curvature="0" />
    </g>
    <path
       style="opacity:1;fill:#ffcc00;fill-opacity:1;fill-rule:nonzero;stroke:none;stroke-width:0.78254217;stroke-miterlimit:4;stroke-dasharray:none;stroke-dashoffset:0;stroke-opacity:1;paint-order:fill markers stroke"
       d="m 81.270338,153.46977 -1.352369,4.00637 1.352369,4.00637 h 2.670928 l -1.35237,-4.00637 1.35237,-4.00637 z"
       id="rect900"
       inkscape:connector-curvature="0"
       sodipodi:nodetypes="ccccccc" />
    <path
       sodipodi:nodetypes="ccccc"
       inkscape:connector-curvature="0"
       id="path909"
       d="m 85.327445,153.46977 -1.352368,4.00637 h 2.670927 l 1.352369,-4.00637 z"
       style="opacity:1;fill:#ff0066;fill-opacity:1;fill-rule:nonzero;stroke:none;stroke-width:0.78254217;stroke-miterlimit:4;stroke-dasharray:none;stroke-dashoffset:0;stroke-opacity:1;paint-order:fill markers stroke" />
    <text
       xml:space="preserve"
       style="font-style:normal;font-variant:normal;font-weight:bold;font-stretch:normal;font-size:3.27256823px;line-height:0.42543384px;font-family:'Century Gothic';-inkscape-font-specification:'Century Gothic Bold';letter-spacing:-0.20697697px;word-spacing:0px;fill:#808080;fill-opacity:1;stroke:none;stroke-width:0.08181421"
       x="159.16083"
       y="161.46838"
       id="text917"
       transform="skewX(-15)"><tspan
         sodipodi:role="line"
         id="tspan915"
         x="159.16083"
         y="161.46838"
         style="font-style:normal;font-variant:normal;font-weight:bold;font-stretch:normal;line-height:0.42543384px;font-family:'Century Gothic';-inkscape-font-specification:'Century Gothic Bold';letter-spacing:-0.20697697px;fill:#808080;fill-opacity:1;stroke-width:0.08181421">app</tspan></text>
  </g>
</svg>
